# xmcd
#
# Track frame offsets: 
#        150
#        16406
#        32720
#        52310
#        71597
#        86905
#        102668
#        116840
#        133354
#        151311
#        168149
#        182549
#        198128
#        214384
#        214909
#        215434
#        215959
#        216484
#        217009
#        217534
#        218059
#        218584
#        241459
#
# Disc length: 3392 seconds
#
# Revision: 0
# Processed by: cddbd v1.5.2PL0 Copyright (c) Steve Scherf et al.
# Submitted via: ExactAudioCopy v0.99pb3
#
DISCID=7c0d3e17
DTITLE=Another Rap Group - Aziaddict and Ospis are...
DYEAR=2005
DGENRE=Hip-Hop
TTITLE0=Servin'
TTITLE1=Words of Advice (feat. Matial)
TTITLE2=Represent
TTITLE3=She
TTITLE4=Another Rap
TTITLE5=Risk
TTITLE6=Imagine If
TTITLE7=Focus
TTITLE8=No Truth (Nothing in this Rhyme is True)
TTITLE9=Brotha Scott
TTITLE10=Secrets
TTITLE11=Leave Me Alone
TTITLE12=21 Bar Salute (feat. ZoNeZ, Yayso)
TTITLE13=[untitled]
TTITLE14=[untitled]
TTITLE15=[untitled]
TTITLE16=[untitled]
TTITLE17=[untitled]
TTITLE18=[untitled]
TTITLE19=[untitled]
TTITLE20=[untitled]
TTITLE21=hidden track 01
TTITLE22=hidden track 02
EXTD=
EXTT0=
EXTT1=
EXTT2=
EXTT3=
EXTT4=
EXTT5=
EXTT6=
EXTT7=
EXTT8=
EXTT9=
EXTT10=
EXTT11=
EXTT12=
EXTT13=
EXTT14=
EXTT15=
EXTT16=
EXTT17=
EXTT18=
EXTT19=
EXTT20=
EXTT21=
EXTT22=
PLAYORDER=
